# cube.obj
# by Alexey Berezniker

# Vertices:
#   x    y    z
v -1.0 -1.0  1.0
v  1.0 -1.0  1.0
v  1.0  1.0  1.0
v -1.0  1.0  1.0
v -1.0 -1.0 -1.0
v  1.0 -1.0 -1.0
v  1.0  1.0 -1.0
v -1.0  1.0 -1.0

# Texture:
#    x    y
vt  0.0  0.0
vt  1.0  0.0
vt  1.0  1.0
vt  0.0  1.0

# Normals:
#    x    y    z
vn  0.0  0.0  1.0
vn  0.0  0.0 -1.0
vn  0.0  1.0  0.0
vn  0.0 -1.0  0.0
vn  1.0  0.0  0.0
vn -1.0  0.0  0.0

# Faces:
# front
f  1/1/1  2/2/1  3/3/1
f  1/1/1  3/3/1  4/4/1
# back
f  6/1/2  5/2/2  8/3/2
f  6/1/2  8/3/2  7/4/2
# top
f  4/1/3  3/2/3  7/3/3
f  4/1/3  7/3/3  8/4/3
# bottom
f  5/1/4  6/2/4  2/3/4
f  5/1/4  2/3/4  1/4/4
# right
f  2/1/5  6/2/5  7/3/5
f  2/1/5  7/3/5  3/4/5
# left
f  5/1/6  1/2/6  4/3/6
f  5/1/6  4/3/6  8/4/6
